<mxfile host="app.diagrams.net" modified="2023-10-26T06:45:12.223Z" agent="Mozilla/5.0 (Windows NT 10.0; Win64; x64) AppleWebKit/537.36 (KHTML, like Gecko) Chrome/118.0.0.0 Safari/537.36 Edg/118.0.2088.46" etag="l43szU3kZp4nJrP9cGRT" version="22.0.8" type="github">
  <diagram name="Page-1" id="MqMcNoYsNgY123wWPa6b">
    <mxGraphModel dx="1686" dy="1186" grid="1" gridSize="10" guides="1" tooltips="1" connect="1" arrows="1" fold="1" page="1" pageScale="1" pageWidth="1600" pageHeight="900" math="0" shadow="0">
      <root>
        <mxCell id="0" />
        <mxCell id="1" parent="0" />
        <mxCell id="XI0bTHqTrJX9IQCdkhQH-6" style="edgeStyle=none;curved=1;rounded=0;orthogonalLoop=1;jettySize=auto;html=1;exitX=1;exitY=0.5;exitDx=0;exitDy=0;entryX=0;entryY=0.5;entryDx=0;entryDy=0;fontSize=12;startSize=8;endSize=8;" edge="1" parent="1" source="XI0bTHqTrJX9IQCdkhQH-1" target="XI0bTHqTrJX9IQCdkhQH-5">
          <mxGeometry relative="1" as="geometry" />
        </mxCell>
        <mxCell id="XI0bTHqTrJX9IQCdkhQH-1" value="USER" style="ellipse;whiteSpace=wrap;html=1;aspect=fixed;fillColor=#e51400;strokeColor=#B20000;fontColor=#ffffff;fontSize=16;" vertex="1" parent="1">
          <mxGeometry x="40" y="290" width="80" height="80" as="geometry" />
        </mxCell>
        <mxCell id="XI0bTHqTrJX9IQCdkhQH-2" value="" style="group;fontSize=16;" vertex="1" connectable="0" parent="1">
          <mxGeometry x="1380" y="290" width="90" height="90" as="geometry" />
        </mxCell>
        <mxCell id="XI0bTHqTrJX9IQCdkhQH-3" value="" style="whiteSpace=wrap;html=1;aspect=fixed;fillColor=#008a00;fontColor=#ffffff;strokeColor=#005700;fontSize=16;" vertex="1" parent="XI0bTHqTrJX9IQCdkhQH-2">
          <mxGeometry width="80" height="80" as="geometry" />
        </mxCell>
        <mxCell id="XI0bTHqTrJX9IQCdkhQH-4" value="API SERVERS" style="whiteSpace=wrap;html=1;aspect=fixed;fillColor=#008a00;fontColor=#ffffff;strokeColor=#005700;fontSize=16;" vertex="1" parent="XI0bTHqTrJX9IQCdkhQH-2">
          <mxGeometry x="10" y="10" width="80" height="80" as="geometry" />
        </mxCell>
        <mxCell id="XI0bTHqTrJX9IQCdkhQH-18" style="edgeStyle=none;curved=1;rounded=0;orthogonalLoop=1;jettySize=auto;html=1;exitX=0.5;exitY=0;exitDx=0;exitDy=0;fontSize=12;startSize=8;endSize=8;" edge="1" parent="1" source="XI0bTHqTrJX9IQCdkhQH-5" target="XI0bTHqTrJX9IQCdkhQH-11">
          <mxGeometry relative="1" as="geometry" />
        </mxCell>
        <mxCell id="XI0bTHqTrJX9IQCdkhQH-19" style="edgeStyle=none;curved=1;rounded=0;orthogonalLoop=1;jettySize=auto;html=1;exitX=1;exitY=0.75;exitDx=0;exitDy=0;fontSize=12;startSize=8;endSize=8;" edge="1" parent="1" source="XI0bTHqTrJX9IQCdkhQH-5" target="XI0bTHqTrJX9IQCdkhQH-9">
          <mxGeometry relative="1" as="geometry" />
        </mxCell>
        <mxCell id="XI0bTHqTrJX9IQCdkhQH-5" value="RATE&lt;br&gt;LIMITER" style="whiteSpace=wrap;html=1;aspect=fixed;fillColor=#008a00;fontColor=#ffffff;strokeColor=#005700;fontSize=16;" vertex="1" parent="1">
          <mxGeometry x="410" y="290" width="80" height="80" as="geometry" />
        </mxCell>
        <mxCell id="XI0bTHqTrJX9IQCdkhQH-7" style="edgeStyle=none;curved=1;rounded=0;orthogonalLoop=1;jettySize=auto;html=1;exitX=1;exitY=0.5;exitDx=0;exitDy=0;entryX=0;entryY=0.75;entryDx=0;entryDy=0;fontSize=12;startSize=8;endSize=8;" edge="1" parent="1" source="XI0bTHqTrJX9IQCdkhQH-5" target="XI0bTHqTrJX9IQCdkhQH-3">
          <mxGeometry relative="1" as="geometry" />
        </mxCell>
        <mxCell id="XI0bTHqTrJX9IQCdkhQH-8" value="SUCCESS" style="edgeLabel;html=1;align=center;verticalAlign=middle;resizable=0;points=[];fontSize=16;" vertex="1" connectable="0" parent="XI0bTHqTrJX9IQCdkhQH-7">
          <mxGeometry x="-0.173" y="2" relative="1" as="geometry">
            <mxPoint as="offset" />
          </mxGeometry>
        </mxCell>
        <mxCell id="XI0bTHqTrJX9IQCdkhQH-9" value="" style="shape=hexagon;perimeter=hexagonPerimeter2;whiteSpace=wrap;html=1;fixedSize=1;fillColor=#fa6800;fontColor=#000000;strokeColor=#C73500;fontSize=16;" vertex="1" parent="1">
          <mxGeometry x="570" y="430" width="100" height="80" as="geometry" />
        </mxCell>
        <mxCell id="XI0bTHqTrJX9IQCdkhQH-10" value="REDIS&lt;br&gt;CLUSTER" style="shape=hexagon;perimeter=hexagonPerimeter2;whiteSpace=wrap;html=1;fixedSize=1;fillColor=#fa6800;fontColor=#000000;strokeColor=#C73500;fontSize=16;" vertex="1" parent="1">
          <mxGeometry x="580" y="440" width="100" height="80" as="geometry" />
        </mxCell>
        <mxCell id="XI0bTHqTrJX9IQCdkhQH-11" value="RULES CACHE" style="shape=hexagon;perimeter=hexagonPerimeter2;whiteSpace=wrap;html=1;fixedSize=1;fillColor=#fa6800;fontColor=#000000;strokeColor=#C73500;fontSize=16;" vertex="1" parent="1">
          <mxGeometry x="500" y="130" width="100" height="80" as="geometry" />
        </mxCell>
        <mxCell id="XI0bTHqTrJX9IQCdkhQH-12" value="" style="group;fontSize=16;" vertex="1" connectable="0" parent="1">
          <mxGeometry x="680" y="65" width="90" height="90" as="geometry" />
        </mxCell>
        <mxCell id="XI0bTHqTrJX9IQCdkhQH-13" value="" style="whiteSpace=wrap;html=1;aspect=fixed;fillColor=#008a00;fontColor=#ffffff;strokeColor=#005700;fontSize=16;" vertex="1" parent="XI0bTHqTrJX9IQCdkhQH-12">
          <mxGeometry width="80" height="80" as="geometry" />
        </mxCell>
        <mxCell id="XI0bTHqTrJX9IQCdkhQH-14" value="RULES&lt;br&gt;WORKERS" style="whiteSpace=wrap;html=1;aspect=fixed;fillColor=#008a00;fontColor=#ffffff;strokeColor=#005700;fontSize=16;" vertex="1" parent="XI0bTHqTrJX9IQCdkhQH-12">
          <mxGeometry x="10" y="10" width="80" height="80" as="geometry" />
        </mxCell>
        <mxCell id="XI0bTHqTrJX9IQCdkhQH-15" value="RULES&lt;br&gt;DB" style="shape=cylinder3;whiteSpace=wrap;html=1;boundedLbl=1;backgroundOutline=1;size=15;fillColor=#1ba1e2;fontColor=#ffffff;strokeColor=#006EAF;fontSize=16;" vertex="1" parent="1">
          <mxGeometry x="850" y="75" width="60" height="80" as="geometry" />
        </mxCell>
        <mxCell id="XI0bTHqTrJX9IQCdkhQH-16" style="edgeStyle=none;curved=1;rounded=0;orthogonalLoop=1;jettySize=auto;html=1;exitX=1;exitY=0.5;exitDx=0;exitDy=0;entryX=0;entryY=0.5;entryDx=0;entryDy=0;entryPerimeter=0;fontSize=12;startSize=8;endSize=8;" edge="1" parent="1" source="XI0bTHqTrJX9IQCdkhQH-14" target="XI0bTHqTrJX9IQCdkhQH-15">
          <mxGeometry relative="1" as="geometry" />
        </mxCell>
        <mxCell id="XI0bTHqTrJX9IQCdkhQH-17" style="edgeStyle=none;curved=1;rounded=0;orthogonalLoop=1;jettySize=auto;html=1;exitX=0;exitY=0.5;exitDx=0;exitDy=0;fontSize=12;startSize=8;endSize=8;" edge="1" parent="1" source="XI0bTHqTrJX9IQCdkhQH-13" target="XI0bTHqTrJX9IQCdkhQH-11">
          <mxGeometry relative="1" as="geometry" />
        </mxCell>
        <mxCell id="XI0bTHqTrJX9IQCdkhQH-20" style="edgeStyle=none;curved=1;rounded=0;orthogonalLoop=1;jettySize=auto;html=1;exitX=0.5;exitY=1;exitDx=0;exitDy=0;entryX=0.75;entryY=1.025;entryDx=0;entryDy=0;entryPerimeter=0;fontSize=12;startSize=8;endSize=8;" edge="1" parent="1" source="XI0bTHqTrJX9IQCdkhQH-5" target="XI0bTHqTrJX9IQCdkhQH-1">
          <mxGeometry relative="1" as="geometry" />
        </mxCell>
        <mxCell id="XI0bTHqTrJX9IQCdkhQH-21" value="HTTP 429&lt;br&gt;RATE LIMITED" style="edgeLabel;html=1;align=center;verticalAlign=middle;resizable=0;points=[];fontSize=16;" vertex="1" connectable="0" parent="XI0bTHqTrJX9IQCdkhQH-20">
          <mxGeometry x="-0.3142" y="2" relative="1" as="geometry">
            <mxPoint as="offset" />
          </mxGeometry>
        </mxCell>
        <mxCell id="XI0bTHqTrJX9IQCdkhQH-22" value="Get counter for IP, User ID etc" style="text;html=1;align=center;verticalAlign=middle;resizable=0;points=[];autosize=1;strokeColor=none;fillColor=none;fontSize=16;" vertex="1" parent="1">
          <mxGeometry x="510" y="520" width="240" height="30" as="geometry" />
        </mxCell>
      </root>
    </mxGraphModel>
  </diagram>
</mxfile>
